<?xml version="1.0" encoding="UTF-8"?>
<svg id="Layer_1" xmlns="http://www.w3.org/2000/svg" version="1.1" viewBox="0 0 143.02 164.9">
  <!-- Generator: Adobe Illustrator 30.6.0, SVG Export Plug-In . SVG Version: 2.1.4 Build 109)  -->
  <path d="M87.38,68.45l-5.62-12.23-32.83,16.11,22.58-43.23,23.76,45.22,21.64,37.82,2.16,3.78s7.5,14.07,9.33,14.07l14.62-.04-34.99-60.68c-4.1-7.58-31.81-60.3-36.54-69.26l-37.5,71.11c-2.93,5.55-7.36,9.99-12.15,13.79C15.36,89.57,7.99,92.24,0,92.22v13.54c7.13.03,14.1-1.36,20.62-4.33l44.38-21.92.08-.04c-.02,6.14.87,14.72.86,16.48l-.09,30.35c-.02,8.04-4.3,15.05-10.45,19.74-16.69,12.92-41.46.39-41.57-20.55H0c.45,35.77,44.9,53.1,69.2,26.46,6.42-7.06,10.39-15.93,10.42-25.58l-1.21-52.83"/>
</svg>